<svg xmlns="http://www.w3.org/2000/svg" viewBox="0 0 184 149"><path d="M 19,21 L 18,22 L 17,22 L 17,23 L 16,24 L 16,25 L 17,26 L 17,27 L 18,28 L 27,28 L 28,29 L 34,29 L 35,28 L 37,28 L 38,29 L 40,29 L 42,31 L 42,32 L 43,33 L 43,34 L 44,35 L 44,37 L 45,38 L 45,40 L 46,41 L 46,44 L 47,45 L 47,47 L 48,48 L 48,51 L 49,52 L 49,54 L 50,55 L 50,58 L 51,59 L 51,62 L 52,63 L 52,66 L 53,67 L 53,70 L 54,71 L 54,74 L 55,75 L 55,78 L 56,79 L 56,83 L 57,84 L 57,87 L 58,88 L 58,92 L 59,93 L 59,96 L 60,97 L 60,100 L 61,101 L 61,102 L 62,103 L 62,104 L 63,104 L 64,105 L 65,105 L 66,106 L 66,108 L 65,109 L 65,111 L 64,112 L 64,118 L 65,119 L 65,120 L 66,121 L 66,122 L 69,125 L 70,125 L 71,126 L 73,126 L 74,127 L 82,127 L 83,126 L 85,126 L 87,124 L 88,124 L 89,123 L 89,122 L 90,121 L 90,119 L 91,118 L 91,111 L 90,110 L 90,107 L 91,106 L 108,106 L 109,105 L 116,105 L 117,106 L 119,106 L 120,107 L 119,108 L 119,110 L 118,111 L 118,115 L 117,116 L 117,118 L 118,119 L 118,121 L 122,125 L 123,125 L 124,126 L 126,126 L 127,127 L 136,127 L 137,126 L 138,126 L 139,125 L 140,125 L 142,123 L 142,122 L 143,121 L 143,120 L 144,119 L 144,109 L 143,108 L 143,107 L 144,106 L 145,106 L 146,105 L 148,105 L 151,102 L 151,99 L 152,98 L 152,93 L 153,92 L 153,87 L 154,86 L 154,81 L 155,80 L 155,74 L 156,73 L 156,68 L 157,67 L 157,62 L 158,61 L 158,55 L 159,54 L 159,43 L 158,42 L 157,42 L 156,41 L 73,41 L 72,42 L 61,42 L 60,41 L 56,41 L 53,38 L 53,37 L 52,36 L 52,34 L 51,33 L 51,32 L 50,31 L 50,29 L 49,28 L 49,27 L 48,26 L 48,25 L 45,22 L 43,22 L 42,21 Z" fill="black" stroke="black" stroke-width="1"/>
</svg>