<svg xmlns="http://www.w3.org/2000/svg" viewBox="0 0 399 354"><path d="M 165,15 L 164,16 L 156,16 L 155,17 L 150,17 L 149,18 L 145,18 L 144,19 L 141,19 L 140,20 L 137,20 L 136,21 L 133,21 L 132,22 L 130,22 L 129,23 L 128,23 L 127,24 L 125,24 L 124,25 L 123,25 L 122,26 L 120,26 L 119,27 L 118,27 L 117,28 L 116,28 L 115,29 L 114,29 L 113,30 L 112,30 L 111,31 L 110,31 L 109,32 L 108,32 L 107,33 L 106,33 L 105,34 L 104,34 L 102,36 L 101,36 L 99,38 L 98,38 L 96,40 L 95,40 L 93,42 L 92,42 L 88,46 L 87,46 L 80,53 L 79,53 L 73,59 L 73,60 L 67,66 L 67,67 L 63,71 L 63,72 L 61,74 L 61,75 L 59,77 L 59,78 L 57,80 L 57,81 L 55,83 L 55,84 L 54,85 L 54,86 L 53,87 L 53,88 L 52,89 L 52,90 L 51,91 L 51,92 L 50,93 L 50,94 L 49,95 L 49,96 L 48,97 L 48,98 L 47,99 L 47,100 L 46,101 L 46,103 L 45,104 L 45,106 L 44,107 L 44,108 L 43,109 L 43,111 L 42,112 L 42,115 L 41,116 L 41,118 L 40,119 L 40,122 L 39,123 L 39,128 L 38,129 L 38,134 L 37,135 L 37,143 L 36,144 L 36,164 L 37,165 L 37,173 L 38,174 L 38,179 L 39,180 L 39,184 L 40,185 L 40,188 L 41,189 L 41,192 L 42,193 L 42,195 L 43,196 L 43,198 L 44,199 L 44,201 L 45,202 L 45,204 L 46,205 L 46,207 L 47,208 L 47,209 L 48,210 L 48,211 L 49,212 L 49,213 L 50,214 L 50,215 L 51,216 L 51,217 L 52,218 L 52,219 L 53,220 L 53,221 L 54,222 L 54,223 L 55,224 L 55,225 L 57,227 L 57,228 L 59,230 L 59,231 L 61,233 L 61,234 L 64,237 L 64,238 L 67,241 L 67,242 L 74,249 L 74,250 L 79,255 L 80,255 L 87,262 L 88,262 L 92,266 L 93,266 L 95,268 L 96,268 L 98,270 L 99,270 L 101,272 L 102,272 L 104,274 L 105,274 L 106,275 L 107,275 L 108,276 L 109,276 L 110,277 L 111,277 L 112,278 L 113,278 L 114,279 L 115,279 L 116,280 L 117,280 L 118,281 L 119,281 L 120,282 L 121,282 L 122,283 L 124,283 L 125,284 L 127,284 L 128,285 L 129,285 L 130,286 L 133,286 L 134,287 L 136,287 L 137,288 L 140,288 L 141,289 L 144,289 L 145,290 L 149,290 L 150,291 L 155,291 L 156,292 L 165,292 L 166,293 L 184,293 L 185,292 L 194,292 L 195,291 L 200,291 L 201,290 L 205,290 L 206,289 L 209,289 L 210,288 L 213,288 L 214,287 L 216,287 L 217,286 L 219,286 L 220,285 L 222,285 L 223,284 L 225,284 L 226,283 L 227,283 L 228,282 L 230,282 L 231,281 L 232,281 L 233,280 L 234,280 L 235,279 L 236,279 L 237,278 L 238,278 L 239,277 L 240,277 L 241,276 L 242,276 L 243,275 L 244,275 L 246,273 L 247,273 L 248,272 L 249,272 L 251,270 L 252,270 L 254,268 L 255,268 L 258,265 L 259,265 L 262,262 L 263,262 L 267,258 L 269,258 L 280,269 L 280,270 L 273,277 L 273,278 L 340,345 L 341,345 L 366,320 L 366,319 L 299,252 L 298,252 L 291,259 L 290,259 L 279,248 L 279,246 L 283,242 L 283,241 L 286,238 L 286,237 L 289,234 L 289,233 L 291,231 L 291,230 L 293,228 L 293,227 L 294,226 L 294,225 L 296,223 L 296,222 L 297,221 L 297,220 L 298,219 L 298,218 L 299,217 L 299,216 L 300,215 L 300,214 L 301,213 L 301,212 L 302,211 L 302,210 L 303,209 L 303,207 L 304,206 L 304,205 L 305,204 L 305,202 L 306,201 L 306,199 L 307,198 L 307,196 L 308,195 L 308,193 L 309,192 L 309,189 L 310,188 L 310,185 L 311,184 L 311,180 L 312,179 L 312,174 L 313,173 L 313,164 L 314,163 L 314,144 L 313,143 L 313,135 L 312,134 L 312,129 L 311,128 L 311,124 L 310,123 L 310,120 L 309,119 L 309,116 L 308,115 L 308,113 L 307,112 L 307,109 L 306,108 L 306,107 L 305,106 L 305,104 L 304,103 L 304,102 L 303,101 L 303,99 L 302,98 L 302,97 L 301,96 L 301,95 L 300,94 L 300,93 L 299,92 L 299,91 L 298,90 L 298,89 L 297,88 L 297,87 L 296,86 L 296,85 L 295,84 L 295,83 L 293,81 L 293,80 L 291,78 L 291,77 L 289,75 L 289,74 L 287,72 L 287,71 L 283,67 L 283,66 L 276,59 L 276,58 L 272,54 L 271,54 L 270,53 L 270,52 L 269,52 L 263,46 L 262,46 L 259,43 L 258,43 L 255,40 L 254,40 L 252,38 L 251,38 L 249,36 L 248,36 L 246,34 L 245,34 L 244,33 L 243,33 L 242,32 L 241,32 L 240,31 L 239,31 L 238,30 L 237,30 L 236,29 L 235,29 L 234,28 L 233,28 L 232,27 L 231,27 L 230,26 L 228,26 L 227,25 L 226,25 L 225,24 L 223,24 L 222,23 L 221,23 L 220,22 L 217,22 L 216,21 L 214,21 L 213,20 L 210,20 L 209,19 L 206,19 L 205,18 L 201,18 L 200,17 L 195,17 L 194,16 L 186,16 L 185,15 Z" fill="black" stroke="black" stroke-width="1"/>
</svg>