<svg xmlns="http://www.w3.org/2000/svg" viewBox="0 0 980 980"><path d="M 475,122 L 474,123 L 465,123 L 464,124 L 458,124 L 457,125 L 452,125 L 451,126 L 447,126 L 446,127 L 442,127 L 441,128 L 438,128 L 437,129 L 435,129 L 434,130 L 432,130 L 431,131 L 428,131 L 427,132 L 425,132 L 424,133 L 422,133 L 421,134 L 419,134 L 418,135 L 416,135 L 415,136 L 414,136 L 413,137 L 412,137 L 411,138 L 409,138 L 408,139 L 407,139 L 406,140 L 404,140 L 403,141 L 402,141 L 401,142 L 400,142 L 399,143 L 398,143 L 397,144 L 396,144 L 395,145 L 394,145 L 393,146 L 392,146 L 390,148 L 389,148 L 388,149 L 387,149 L 386,150 L 385,150 L 383,152 L 382,152 L 381,153 L 380,153 L 378,155 L 377,155 L 375,157 L 374,157 L 372,159 L 371,159 L 369,161 L 368,161 L 365,164 L 364,164 L 360,168 L 359,168 L 354,173 L 353,173 L 336,190 L 336,191 L 335,192 L 334,192 L 334,193 L 330,197 L 330,198 L 326,202 L 326,203 L 323,206 L 323,207 L 321,209 L 321,210 L 318,213 L 318,214 L 316,216 L 316,217 L 315,218 L 315,219 L 313,221 L 313,222 L 312,223 L 312,224 L 310,226 L 310,227 L 309,228 L 309,229 L 308,230 L 308,231 L 307,232 L 307,233 L 306,234 L 306,235 L 304,237 L 304,239 L 303,240 L 303,241 L 302,242 L 302,243 L 301,244 L 301,245 L 300,246 L 300,247 L 299,248 L 299,250 L 298,251 L 298,253 L 297,254 L 297,255 L 296,256 L 296,258 L 295,259 L 295,261 L 294,262 L 294,263 L 293,264 L 293,267 L 292,268 L 292,270 L 291,271 L 291,274 L 290,275 L 290,278 L 289,279 L 289,282 L 288,283 L 288,287 L 287,288 L 287,292 L 286,293 L 286,299 L 285,300 L 285,308 L 284,309 L 284,322 L 283,323 L 283,333 L 284,334 L 284,348 L 285,349 L 285,356 L 286,357 L 286,363 L 287,364 L 287,368 L 288,369 L 288,373 L 289,374 L 289,377 L 290,378 L 290,381 L 291,382 L 291,385 L 292,386 L 292,388 L 293,389 L 293,391 L 294,392 L 294,394 L 295,395 L 295,397 L 296,398 L 296,400 L 297,401 L 297,403 L 298,404 L 298,405 L 299,406 L 299,407 L 300,408 L 300,410 L 301,411 L 301,412 L 302,413 L 302,414 L 303,415 L 303,417 L 304,418 L 304,419 L 305,420 L 305,421 L 306,422 L 306,423 L 308,425 L 308,426 L 309,427 L 309,428 L 310,429 L 310,430 L 311,431 L 311,432 L 313,434 L 313,435 L 314,436 L 314,437 L 316,439 L 316,440 L 318,442 L 318,443 L 320,445 L 320,446 L 323,449 L 323,450 L 326,453 L 326,454 L 329,457 L 329,458 L 336,465 L 336,466 L 352,482 L 353,482 L 359,488 L 360,488 L 364,492 L 365,492 L 368,495 L 369,495 L 371,497 L 372,497 L 374,499 L 375,499 L 377,501 L 378,501 L 380,503 L 381,503 L 382,504 L 383,504 L 385,506 L 386,506 L 387,507 L 388,507 L 390,509 L 391,509 L 392,510 L 393,510 L 394,511 L 395,511 L 396,512 L 394,514 L 392,514 L 391,515 L 389,515 L 388,516 L 386,516 L 385,517 L 382,517 L 381,518 L 379,518 L 378,519 L 376,519 L 375,520 L 374,520 L 373,521 L 371,521 L 370,522 L 369,522 L 368,523 L 366,523 L 365,524 L 363,524 L 362,525 L 361,525 L 360,526 L 358,526 L 357,527 L 356,527 L 355,528 L 354,528 L 353,529 L 351,529 L 350,530 L 349,530 L 348,531 L 347,531 L 346,532 L 345,532 L 344,533 L 343,533 L 342,534 L 341,534 L 340,535 L 339,535 L 338,536 L 336,536 L 334,538 L 333,538 L 332,539 L 331,539 L 330,540 L 329,540 L 328,541 L 327,541 L 326,542 L 325,542 L 323,544 L 322,544 L 321,545 L 320,545 L 319,546 L 318,546 L 316,548 L 315,548 L 314,549 L 313,549 L 311,551 L 310,551 L 309,552 L 308,552 L 306,554 L 305,554 L 303,556 L 302,556 L 300,558 L 299,558 L 297,560 L 296,560 L 294,562 L 293,562 L 290,565 L 289,565 L 286,568 L 285,568 L 282,571 L 281,571 L 278,574 L 277,574 L 271,580 L 270,580 L 266,584 L 265,584 L 235,614 L 235,615 L 229,621 L 229,622 L 224,627 L 224,628 L 221,631 L 221,632 L 218,635 L 218,636 L 214,640 L 214,641 L 212,643 L 212,644 L 210,646 L 210,647 L 208,649 L 208,650 L 205,653 L 205,654 L 203,656 L 203,657 L 202,658 L 202,659 L 200,661 L 200,662 L 199,663 L 199,664 L 197,666 L 197,667 L 196,668 L 196,669 L 195,670 L 195,671 L 193,673 L 193,674 L 192,675 L 192,676 L 191,677 L 191,678 L 189,680 L 189,681 L 188,682 L 188,683 L 187,684 L 187,685 L 186,686 L 186,687 L 185,688 L 185,689 L 184,690 L 184,691 L 183,692 L 183,693 L 182,694 L 182,696 L 181,697 L 181,698 L 180,699 L 180,700 L 179,701 L 179,702 L 178,703 L 178,704 L 177,705 L 177,707 L 176,708 L 176,709 L 175,710 L 175,712 L 174,713 L 174,714 L 173,715 L 173,716 L 172,717 L 172,719 L 171,720 L 171,722 L 170,723 L 170,725 L 169,726 L 169,727 L 168,728 L 168,730 L 167,731 L 167,733 L 166,734 L 166,737 L 165,738 L 165,740 L 164,741 L 164,743 L 163,744 L 163,746 L 162,747 L 162,750 L 161,751 L 161,754 L 160,755 L 160,758 L 159,759 L 159,762 L 158,763 L 158,767 L 157,768 L 157,771 L 156,772 L 156,777 L 155,778 L 155,782 L 154,783 L 154,788 L 153,789 L 153,795 L 152,796 L 152,803 L 151,804 L 152,805 L 151,806 L 151,816 L 150,817 L 150,845 L 151,846 L 151,847 L 152,848 L 152,849 L 154,851 L 154,852 L 155,852 L 158,855 L 159,855 L 160,856 L 162,856 L 163,857 L 170,857 L 171,856 L 173,856 L 174,855 L 175,855 L 176,854 L 177,854 L 180,851 L 180,850 L 182,848 L 182,847 L 183,846 L 183,843 L 184,842 L 184,816 L 185,815 L 185,807 L 186,806 L 186,798 L 187,797 L 187,792 L 188,791 L 188,786 L 189,785 L 189,781 L 190,780 L 190,776 L 191,775 L 191,771 L 192,770 L 192,767 L 193,766 L 193,763 L 194,762 L 194,760 L 195,759 L 195,756 L 196,755 L 196,752 L 197,751 L 197,749 L 198,748 L 198,746 L 199,745 L 199,743 L 200,742 L 200,740 L 201,739 L 201,737 L 202,736 L 202,735 L 203,734 L 203,732 L 204,731 L 204,729 L 205,728 L 205,727 L 206,726 L 206,724 L 207,723 L 207,722 L 208,721 L 208,720 L 209,719 L 209,717 L 210,716 L 210,715 L 211,714 L 211,713 L 212,712 L 212,711 L 213,710 L 213,709 L 214,708 L 214,707 L 215,706 L 215,704 L 217,702 L 217,701 L 218,700 L 218,699 L 219,698 L 219,697 L 220,696 L 220,695 L 221,694 L 221,693 L 222,692 L 222,691 L 224,689 L 224,688 L 225,687 L 225,686 L 227,684 L 227,683 L 228,682 L 228,681 L 230,679 L 230,678 L 231,677 L 231,676 L 233,674 L 233,673 L 235,671 L 235,670 L 237,668 L 237,667 L 239,665 L 239,664 L 241,662 L 241,661 L 245,657 L 245,656 L 248,653 L 248,652 L 252,648 L 252,647 L 257,642 L 257,641 L 263,635 L 263,634 L 264,633 L 265,633 L 265,632 L 283,614 L 284,614 L 291,607 L 292,607 L 297,602 L 298,602 L 301,599 L 302,599 L 306,595 L 307,595 L 309,593 L 310,593 L 313,590 L 314,590 L 316,588 L 317,588 L 319,586 L 320,586 L 322,584 L 323,584 L 325,582 L 326,582 L 328,580 L 329,580 L 331,578 L 332,578 L 333,577 L 334,577 L 336,575 L 337,575 L 338,574 L 339,574 L 340,573 L 341,573 L 342,572 L 343,572 L 345,570 L 346,570 L 347,569 L 348,569 L 349,568 L 350,568 L 351,567 L 352,567 L 353,566 L 354,566 L 355,565 L 356,565 L 357,564 L 358,564 L 359,563 L 360,563 L 361,562 L 363,562 L 364,561 L 365,561 L 366,560 L 367,560 L 368,559 L 369,559 L 370,558 L 372,558 L 373,557 L 374,557 L 375,556 L 376,556 L 377,555 L 379,555 L 380,554 L 382,554 L 383,553 L 385,553 L 386,552 L 387,552 L 388,551 L 390,551 L 391,550 L 393,550 L 394,549 L 396,549 L 397,548 L 399,548 L 400,547 L 403,547 L 404,546 L 406,546 L 407,545 L 410,545 L 411,544 L 413,544 L 414,543 L 418,543 L 419,542 L 422,542 L 423,541 L 427,541 L 428,540 L 432,540 L 433,539 L 437,539 L 438,538 L 443,538 L 444,537 L 450,537 L 451,536 L 461,536 L 462,535 L 472,535 L 473,534 L 506,534 L 507,535 L 518,535 L 519,536 L 528,536 L 529,537 L 535,537 L 536,538 L 541,538 L 542,539 L 546,539 L 547,540 L 552,540 L 553,541 L 556,541 L 557,542 L 561,542 L 562,543 L 565,543 L 566,544 L 568,544 L 569,545 L 572,545 L 573,546 L 575,546 L 576,547 L 579,547 L 580,548 L 582,548 L 583,549 L 585,549 L 586,550 L 588,550 L 589,551 L 591,551 L 592,552 L 594,552 L 595,553 L 596,553 L 597,554 L 599,554 L 600,555 L 601,555 L 602,556 L 604,556 L 605,557 L 606,557 L 607,558 L 609,558 L 610,559 L 611,559 L 612,560 L 613,560 L 614,561 L 616,561 L 617,562 L 618,562 L 619,563 L 620,563 L 621,564 L 622,564 L 623,565 L 624,565 L 625,566 L 626,566 L 627,567 L 628,567 L 629,568 L 630,568 L 631,569 L 632,569 L 633,570 L 634,570 L 635,571 L 636,571 L 638,573 L 639,573 L 640,574 L 641,574 L 643,576 L 644,576 L 645,577 L 646,577 L 647,578 L 648,578 L 650,580 L 651,580 L 653,582 L 654,582 L 656,584 L 657,584 L 659,586 L 660,586 L 662,588 L 663,588 L 665,590 L 666,590 L 668,592 L 669,592 L 672,595 L 673,595 L 676,598 L 677,598 L 682,603 L 683,603 L 687,607 L 688,607 L 697,616 L 698,616 L 712,630 L 712,631 L 713,631 L 716,634 L 716,635 L 722,641 L 722,642 L 728,648 L 728,649 L 731,652 L 731,653 L 734,656 L 734,657 L 737,660 L 737,661 L 740,664 L 740,665 L 742,667 L 742,668 L 744,670 L 744,671 L 746,673 L 746,674 L 748,676 L 748,677 L 750,679 L 750,680 L 751,681 L 751,682 L 752,683 L 752,684 L 754,686 L 754,687 L 756,689 L 756,690 L 757,691 L 757,692 L 758,693 L 758,694 L 759,695 L 759,696 L 760,697 L 760,698 L 762,700 L 762,702 L 763,703 L 763,704 L 764,705 L 764,706 L 765,707 L 765,708 L 766,709 L 766,710 L 767,711 L 767,712 L 768,713 L 768,714 L 769,715 L 769,717 L 770,718 L 770,719 L 771,720 L 771,721 L 772,722 L 772,723 L 773,724 L 773,726 L 774,727 L 774,728 L 775,729 L 775,731 L 776,732 L 776,734 L 777,735 L 777,737 L 778,738 L 778,739 L 779,740 L 779,742 L 780,743 L 780,745 L 781,746 L 781,749 L 782,750 L 782,751 L 783,752 L 783,755 L 784,756 L 784,759 L 785,760 L 785,762 L 786,763 L 786,766 L 787,767 L 787,770 L 788,771 L 788,775 L 789,776 L 789,780 L 790,781 L 790,785 L 791,786 L 791,791 L 792,792 L 792,797 L 793,798 L 793,806 L 794,807 L 794,815 L 795,816 L 795,842 L 796,843 L 796,846 L 797,847 L 797,848 L 799,850 L 799,851 L 802,854 L 803,854 L 804,855 L 805,855 L 806,856 L 808,856 L 809,857 L 816,857 L 817,856 L 819,856 L 820,855 L 821,855 L 822,854 L 823,854 L 825,852 L 825,851 L 827,849 L 827,848 L 828,847 L 828,846 L 829,845 L 829,818 L 828,817 L 828,805 L 827,804 L 827,796 L 826,795 L 826,789 L 825,788 L 825,783 L 824,782 L 824,778 L 823,777 L 823,772 L 822,771 L 822,768 L 821,767 L 821,763 L 820,762 L 820,759 L 819,758 L 819,755 L 818,754 L 818,751 L 817,750 L 817,747 L 816,746 L 816,744 L 815,743 L 815,741 L 814,740 L 814,738 L 813,737 L 813,734 L 812,733 L 812,731 L 811,730 L 811,728 L 810,727 L 810,726 L 809,725 L 809,723 L 808,722 L 808,720 L 807,719 L 807,718 L 806,717 L 806,715 L 805,714 L 805,713 L 804,712 L 804,710 L 803,709 L 803,708 L 802,707 L 802,705 L 801,704 L 801,703 L 800,702 L 800,701 L 799,700 L 799,699 L 798,698 L 798,696 L 797,695 L 797,694 L 796,693 L 796,692 L 795,691 L 795,690 L 794,689 L 794,688 L 793,687 L 793,686 L 792,685 L 792,684 L 791,683 L 791,682 L 790,681 L 790,680 L 788,678 L 788,677 L 787,676 L 787,675 L 786,674 L 786,673 L 784,671 L 784,670 L 783,669 L 783,668 L 782,667 L 782,666 L 780,664 L 780,663 L 779,662 L 779,661 L 777,659 L 777,658 L 775,656 L 775,655 L 773,653 L 773,652 L 771,650 L 771,649 L 769,647 L 769,646 L 767,644 L 767,643 L 765,641 L 765,640 L 761,636 L 761,635 L 759,633 L 759,632 L 755,628 L 755,627 L 750,622 L 750,621 L 743,614 L 743,613 L 715,585 L 714,585 L 709,580 L 708,580 L 702,574 L 701,574 L 698,571 L 697,571 L 694,568 L 693,568 L 690,565 L 689,565 L 687,563 L 686,563 L 683,560 L 682,560 L 680,558 L 679,558 L 677,556 L 676,556 L 674,554 L 673,554 L 671,552 L 670,552 L 669,551 L 668,551 L 666,549 L 665,549 L 664,548 L 663,548 L 661,546 L 660,546 L 659,545 L 658,545 L 657,544 L 656,544 L 654,542 L 653,542 L 652,541 L 651,541 L 650,540 L 649,540 L 648,539 L 647,539 L 646,538 L 645,538 L 644,537 L 643,537 L 642,536 L 641,536 L 640,535 L 639,535 L 638,534 L 637,534 L 636,533 L 635,533 L 634,532 L 633,532 L 632,531 L 631,531 L 630,530 L 628,530 L 627,529 L 626,529 L 625,528 L 624,528 L 623,527 L 622,527 L 621,526 L 619,526 L 618,525 L 617,525 L 616,524 L 614,524 L 613,523 L 612,523 L 611,522 L 609,522 L 608,521 L 606,521 L 605,520 L 604,520 L 603,519 L 601,519 L 600,518 L 598,518 L 597,517 L 595,517 L 594,516 L 592,516 L 591,515 L 588,515 L 587,514 L 585,514 L 583,512 L 584,511 L 585,511 L 586,510 L 587,510 L 588,509 L 589,509 L 590,508 L 591,508 L 593,506 L 594,506 L 595,505 L 596,505 L 598,503 L 599,503 L 601,501 L 602,501 L 604,499 L 605,499 L 607,497 L 608,497 L 610,495 L 611,495 L 614,492 L 615,492 L 619,488 L 620,488 L 624,484 L 625,484 L 646,463 L 646,462 L 650,458 L 650,457 L 653,454 L 653,453 L 657,449 L 657,448 L 659,446 L 659,445 L 661,443 L 661,442 L 663,440 L 663,439 L 665,437 L 665,436 L 666,435 L 666,434 L 668,432 L 668,431 L 669,430 L 669,429 L 670,428 L 670,427 L 672,425 L 672,424 L 673,423 L 673,422 L 674,421 L 674,419 L 676,417 L 676,415 L 677,414 L 677,413 L 678,412 L 678,411 L 679,410 L 679,408 L 680,407 L 680,406 L 681,405 L 681,404 L 682,403 L 682,401 L 683,400 L 683,398 L 684,397 L 684,395 L 685,394 L 685,392 L 686,391 L 686,389 L 687,388 L 687,386 L 688,385 L 688,382 L 689,381 L 689,378 L 690,377 L 690,374 L 691,373 L 691,369 L 692,368 L 692,364 L 693,363 L 693,357 L 694,356 L 694,348 L 695,347 L 695,334 L 696,333 L 696,323 L 695,322 L 695,309 L 694,308 L 694,300 L 693,299 L 693,293 L 692,292 L 692,288 L 691,287 L 691,283 L 690,282 L 690,279 L 689,278 L 689,275 L 688,274 L 688,271 L 687,270 L 687,268 L 686,267 L 686,264 L 685,263 L 685,262 L 684,261 L 684,259 L 683,258 L 683,256 L 682,255 L 682,254 L 681,253 L 681,251 L 680,250 L 680,249 L 679,248 L 679,246 L 678,245 L 678,244 L 677,243 L 677,242 L 676,241 L 676,240 L 675,239 L 675,237 L 674,236 L 674,235 L 672,233 L 672,232 L 671,231 L 671,230 L 670,229 L 670,228 L 669,227 L 669,226 L 667,224 L 667,223 L 666,222 L 666,221 L 665,220 L 665,219 L 663,217 L 663,216 L 661,214 L 661,213 L 658,210 L 658,209 L 656,207 L 656,206 L 653,203 L 653,202 L 649,198 L 649,197 L 645,193 L 645,192 L 628,175 L 627,175 L 626,174 L 626,173 L 625,173 L 620,168 L 619,168 L 615,164 L 614,164 L 612,162 L 611,162 L 608,159 L 607,159 L 605,157 L 604,157 L 602,155 L 601,155 L 599,153 L 598,153 L 597,152 L 596,152 L 594,150 L 593,150 L 592,149 L 591,149 L 590,148 L 589,148 L 587,146 L 586,146 L 585,145 L 584,145 L 583,144 L 582,144 L 581,143 L 580,143 L 579,142 L 578,142 L 577,141 L 576,141 L 575,140 L 573,140 L 572,139 L 571,139 L 570,138 L 568,138 L 567,137 L 566,137 L 565,136 L 564,136 L 563,135 L 561,135 L 560,134 L 558,134 L 557,133 L 555,133 L 554,132 L 552,132 L 551,131 L 549,131 L 548,130 L 545,130 L 544,129 L 542,129 L 541,128 L 538,128 L 537,127 L 533,127 L 532,126 L 528,126 L 527,125 L 522,125 L 521,124 L 515,124 L 514,123 L 501,123 L 500,122 L 480,122 L 479,123 L 478,123 L 477,122 Z" fill="black" stroke="black" stroke-width="1"/>
</svg>